<?xml version="1.0" encoding="UTF-8" standalone="no"?>
<!DOCTYPE svg PUBLIC "-//W3C//DTD SVG 1.1//EN"
 "http://www.w3.org/Graphics/SVG/1.1/DTD/svg11.dtd">
<!-- Generated by graphviz version 2.43.0 (0)
 -->
<!-- Title: %3 Pages: 1 -->
<svg width="880pt" height="427pt"
 viewBox="0.00 0.00 880.00 427.48" xmlns="http://www.w3.org/2000/svg" xmlns:xlink="http://www.w3.org/1999/xlink">
<g id="graph0" class="graph" transform="scale(1 1) rotate(0) translate(4 423.48)">
<title>%3</title>
<polygon fill="white" stroke="transparent" points="-4,4 -4,-423.48 876,-423.48 876,4 -4,4"/>
<text text-anchor="middle" x="436" y="-404.28" font-family="Times,serif" font-size="14.00">Dependency Tree for Native Cross Compiler</text>
<text text-anchor="middle" x="436" y="-389.28" font-family="Times,serif" font-size="14.00">and Canadian Cross Compiler Generation</text>
<g id="clust1" class="cluster">
<title>cluster_host</title>
<polygon fill="#f4f4ff" stroke="black" points="8,-8 8,-364.61 332,-364.61 332,-8 8,-8"/>
<text text-anchor="middle" x="170" y="-349.41" font-family="Times,serif" font-size="14.00">Native Cross</text>
</g>
<g id="clust2" class="cluster">
<title>cluster_bin</title>
<polygon fill="white" stroke="black" points="228,-16 228,-333.61 324,-333.61 324,-16 228,-16"/>
<text text-anchor="middle" x="276" y="-318.41" font-family="Times,serif" font-size="14.00">Binutils</text>
</g>
<g id="clust3" class="cluster">
<title>cluster_gcc</title>
<polygon fill="white" stroke="black" points="121,-16 121,-333.61 217,-333.61 217,-16 121,-16"/>
<text text-anchor="middle" x="169" y="-318.41" font-family="Times,serif" font-size="14.00">GCC</text>
</g>
<g id="clust4" class="cluster">
<title>cluster_libc</title>
<polygon fill="white" stroke="black" points="16,-16 16,-333.61 112,-333.61 112,-16 16,-16"/>
<text text-anchor="middle" x="64" y="-318.41" font-family="Times,serif" font-size="14.00">LibC</text>
</g>
<g id="clust6" class="cluster">
<title>cluster_canadian</title>
<polygon fill="#fff8f8" stroke="black" points="340,-8 340,-373.48 864,-373.48 864,-8 340,-8"/>
<text text-anchor="middle" x="602" y="-358.28" font-family="Times,serif" font-size="14.00">Canadian Cross</text>
</g>
<g id="clust7" class="cluster">
<title>cluster_binW</title>
<polygon fill="white" stroke="black" points="752,-16 752,-333.61 856,-333.61 856,-16 752,-16"/>
<text text-anchor="middle" x="804" y="-318.41" font-family="Times,serif" font-size="14.00">Binutils Win</text>
</g>
<g id="clust8" class="cluster">
<title>cluster_gccW</title>
<polygon fill="white" stroke="black" points="492,-16 492,-342.48 744,-342.48 744,-16 492,-16"/>
<text text-anchor="middle" x="618" y="-327.28" font-family="Times,serif" font-size="14.00">GCC Win</text>
</g>
<g id="clust10" class="cluster">
<title>cluster_libcW</title>
<polygon fill="white" stroke="black" points="348,-168.87 348,-333.61 484,-333.61 484,-168.87 348,-168.87"/>
<text text-anchor="middle" x="416" y="-318.41" font-family="Times,serif" font-size="14.00">LibC Win</text>
</g>
<!-- bin_i -->
<g id="node1" class="node">
<title>bin_i</title>
<ellipse fill="#ddddff" stroke="black" cx="276" cy="-284.61" rx="39.79" ry="18"/>
<text text-anchor="middle" x="276" y="-280.91" font-family="Times,serif" font-size="14.00">install</text>
</g>
<!-- bin_m -->
<g id="node2" class="node">
<title>bin_m</title>
<ellipse fill="#ddddff" stroke="black" cx="280" cy="-194.87" rx="36" ry="18"/>
<text text-anchor="middle" x="280" y="-191.17" font-family="Times,serif" font-size="14.00">make</text>
</g>
<!-- bin_i&#45;&gt;bin_m -->
<g id="edge1" class="edge">
<title>bin_i&#45;&gt;bin_m</title>
<path fill="none" stroke="black" d="M276.79,-266.28C277.35,-253.94 278.12,-237.12 278.76,-223.01"/>
<polygon fill="black" stroke="black" points="282.27,-223.02 279.22,-212.87 275.27,-222.7 282.27,-223.02"/>
</g>
<!-- bin_c -->
<g id="node3" class="node">
<title>bin_c</title>
<ellipse fill="#ddddff" stroke="black" cx="280" cy="-114" rx="30.59" ry="18"/>
<text text-anchor="middle" x="280" y="-110.3" font-family="Times,serif" font-size="14.00">conf</text>
</g>
<!-- bin_m&#45;&gt;bin_c -->
<g id="edge2" class="edge">
<title>bin_m&#45;&gt;bin_c</title>
<path fill="none" stroke="black" d="M280,-176.76C280,-166.73 280,-153.84 280,-142.42"/>
<polygon fill="black" stroke="black" points="283.5,-142.08 280,-132.08 276.5,-142.08 283.5,-142.08"/>
</g>
<!-- bin_s -->
<g id="node4" class="node">
<title>bin_s</title>
<ellipse fill="white" stroke="black" cx="280" cy="-42" rx="27" ry="18"/>
<text text-anchor="middle" x="280" y="-38.3" font-family="Times,serif" font-size="14.00">src</text>
</g>
<!-- bin_c&#45;&gt;bin_s -->
<g id="edge3" class="edge">
<title>bin_c&#45;&gt;bin_s</title>
<path fill="none" stroke="black" d="M280,-95.7C280,-87.98 280,-78.71 280,-70.11"/>
<polygon fill="black" stroke="black" points="283.5,-70.1 280,-60.1 276.5,-70.1 283.5,-70.1"/>
</g>
<!-- gcc_i -->
<g id="node5" class="node">
<title>gcc_i</title>
<ellipse fill="#ddddff" stroke="black" cx="169" cy="-284.61" rx="39.79" ry="18"/>
<text text-anchor="middle" x="169" y="-280.91" font-family="Times,serif" font-size="14.00">install</text>
</g>
<!-- gcc_m -->
<g id="node6" class="node">
<title>gcc_m</title>
<ellipse fill="#ddddff" stroke="black" cx="170" cy="-194.87" rx="36" ry="18"/>
<text text-anchor="middle" x="170" y="-191.17" font-family="Times,serif" font-size="14.00">make</text>
</g>
<!-- gcc_i&#45;&gt;gcc_m -->
<g id="edge4" class="edge">
<title>gcc_i&#45;&gt;gcc_m</title>
<path fill="none" stroke="black" d="M169.2,-266.28C169.34,-253.94 169.53,-237.12 169.69,-223.01"/>
<polygon fill="black" stroke="black" points="173.19,-222.91 169.81,-212.87 166.19,-222.83 173.19,-222.91"/>
</g>
<!-- gcc_c -->
<g id="node7" class="node">
<title>gcc_c</title>
<ellipse fill="#ddddff" stroke="black" cx="174" cy="-114" rx="30.59" ry="18"/>
<text text-anchor="middle" x="174" y="-110.3" font-family="Times,serif" font-size="14.00">conf</text>
</g>
<!-- gcc_m&#45;&gt;gcc_c -->
<g id="edge5" class="edge">
<title>gcc_m&#45;&gt;gcc_c</title>
<path fill="none" stroke="black" d="M170.87,-176.76C171.38,-166.63 172.04,-153.57 172.63,-142.07"/>
<polygon fill="black" stroke="black" points="176.12,-142.24 173.13,-132.08 169.13,-141.89 176.12,-142.24"/>
</g>
<!-- gcc_c&#45;&gt;bin_i -->
<g id="edge10" class="edge">
<title>gcc_c&#45;&gt;bin_i</title>
<path fill="none" stroke="black" d="M187.9,-130.35C196.55,-140.49 207.43,-154.38 215,-168 227.38,-190.27 223.44,-199.03 235,-221.74 241.55,-234.61 250.22,-248.06 257.9,-259.13"/>
<polygon fill="black" stroke="black" points="255.15,-261.3 263.79,-267.43 260.86,-257.25 255.15,-261.3"/>
</g>
<!-- gcc_s -->
<g id="node8" class="node">
<title>gcc_s</title>
<ellipse fill="white" stroke="black" cx="174" cy="-42" rx="27" ry="18"/>
<text text-anchor="middle" x="174" y="-38.3" font-family="Times,serif" font-size="14.00">src</text>
</g>
<!-- gcc_c&#45;&gt;gcc_s -->
<g id="edge6" class="edge">
<title>gcc_c&#45;&gt;gcc_s</title>
<path fill="none" stroke="black" d="M174,-95.7C174,-87.98 174,-78.71 174,-70.11"/>
<polygon fill="black" stroke="black" points="177.5,-70.1 174,-60.1 170.5,-70.1 177.5,-70.1"/>
</g>
<!-- libc_i -->
<g id="node9" class="node">
<title>libc_i</title>
<ellipse fill="#ddddff" stroke="black" cx="64" cy="-284.61" rx="39.79" ry="18"/>
<text text-anchor="middle" x="64" y="-280.91" font-family="Times,serif" font-size="14.00">install</text>
</g>
<!-- libc_m -->
<g id="node10" class="node">
<title>libc_m</title>
<ellipse fill="#ddddff" stroke="black" cx="60" cy="-194.87" rx="36" ry="18"/>
<text text-anchor="middle" x="60" y="-191.17" font-family="Times,serif" font-size="14.00">make</text>
</g>
<!-- libc_i&#45;&gt;libc_m -->
<g id="edge7" class="edge">
<title>libc_i&#45;&gt;libc_m</title>
<path fill="none" stroke="black" d="M63.21,-266.28C62.65,-253.94 61.88,-237.12 61.24,-223.01"/>
<polygon fill="black" stroke="black" points="64.73,-222.7 60.78,-212.87 57.73,-223.02 64.73,-222.7"/>
</g>
<!-- libc_c -->
<g id="node11" class="node">
<title>libc_c</title>
<ellipse fill="#ddddff" stroke="black" cx="66" cy="-114" rx="30.59" ry="18"/>
<text text-anchor="middle" x="66" y="-110.3" font-family="Times,serif" font-size="14.00">conf</text>
</g>
<!-- libc_m&#45;&gt;libc_c -->
<g id="edge8" class="edge">
<title>libc_m&#45;&gt;libc_c</title>
<path fill="none" stroke="black" d="M61.3,-176.76C62.07,-166.63 63.07,-153.57 63.94,-142.07"/>
<polygon fill="black" stroke="black" points="67.43,-142.32 64.7,-132.08 60.45,-141.79 67.43,-142.32"/>
</g>
<!-- libc_c&#45;&gt;gcc_i -->
<g id="edge11" class="edge">
<title>libc_c&#45;&gt;gcc_i</title>
<path fill="none" stroke="black" d="M79.17,-130.46C87.38,-140.64 97.72,-154.53 105,-168 117.11,-190.42 113.07,-199.22 125,-221.74 131.98,-234.92 141.39,-248.54 149.71,-259.63"/>
<polygon fill="black" stroke="black" points="146.94,-261.77 155.81,-267.57 152.5,-257.51 146.94,-261.77"/>
</g>
<!-- libc_s -->
<g id="node12" class="node">
<title>libc_s</title>
<ellipse fill="white" stroke="black" cx="66" cy="-42" rx="27" ry="18"/>
<text text-anchor="middle" x="66" y="-38.3" font-family="Times,serif" font-size="14.00">src</text>
</g>
<!-- libc_c&#45;&gt;libc_s -->
<g id="edge9" class="edge">
<title>libc_c&#45;&gt;libc_s</title>
<path fill="none" stroke="black" d="M66,-95.7C66,-87.98 66,-78.71 66,-70.11"/>
<polygon fill="black" stroke="black" points="69.5,-70.1 66,-60.1 62.5,-70.1 69.5,-70.1"/>
</g>
<!-- binW_i -->
<g id="node13" class="node">
<title>binW_i</title>
<ellipse fill="#ffddcc" stroke="black" cx="804" cy="-284.61" rx="39.79" ry="18"/>
<text text-anchor="middle" x="804" y="-280.91" font-family="Times,serif" font-size="14.00">install</text>
</g>
<!-- binW_m -->
<g id="node14" class="node">
<title>binW_m</title>
<ellipse fill="#ffddcc" stroke="black" cx="810" cy="-194.87" rx="36" ry="18"/>
<text text-anchor="middle" x="810" y="-191.17" font-family="Times,serif" font-size="14.00">make</text>
</g>
<!-- binW_i&#45;&gt;binW_m -->
<g id="edge12" class="edge">
<title>binW_i&#45;&gt;binW_m</title>
<path fill="none" stroke="black" d="M805.19,-266.28C806.03,-253.94 807.18,-237.12 808.14,-223.01"/>
<polygon fill="black" stroke="black" points="811.65,-223.09 808.84,-212.87 804.66,-222.61 811.65,-223.09"/>
</g>
<!-- binW_c -->
<g id="node15" class="node">
<title>binW_c</title>
<ellipse fill="#ffddcc" stroke="black" cx="810" cy="-114" rx="30.59" ry="18"/>
<text text-anchor="middle" x="810" y="-110.3" font-family="Times,serif" font-size="14.00">conf</text>
</g>
<!-- binW_m&#45;&gt;binW_c -->
<g id="edge13" class="edge">
<title>binW_m&#45;&gt;binW_c</title>
<path fill="none" stroke="black" d="M810,-176.76C810,-166.73 810,-153.84 810,-142.42"/>
<polygon fill="black" stroke="black" points="813.5,-142.08 810,-132.08 806.5,-142.08 813.5,-142.08"/>
</g>
<!-- binW_s -->
<g id="node16" class="node">
<title>binW_s</title>
<ellipse fill="white" stroke="black" cx="810" cy="-42" rx="27" ry="18"/>
<text text-anchor="middle" x="810" y="-38.3" font-family="Times,serif" font-size="14.00">src</text>
</g>
<!-- binW_c&#45;&gt;binW_s -->
<g id="edge14" class="edge">
<title>binW_c&#45;&gt;binW_s</title>
<path fill="none" stroke="black" d="M810,-95.7C810,-87.98 810,-78.71 810,-70.11"/>
<polygon fill="black" stroke="black" points="813.5,-70.1 810,-60.1 806.5,-70.1 813.5,-70.1"/>
</g>
<!-- gccW_ih -->
<g id="node17" class="node">
<title>gccW_ih</title>
<ellipse fill="#ffddcc" stroke="black" cx="687" cy="-284.61" rx="43.27" ry="26.74"/>
<text text-anchor="middle" x="687" y="-288.41" font-family="Times,serif" font-size="14.00">install</text>
<text text-anchor="middle" x="687" y="-273.41" font-family="Times,serif" font-size="14.00">&#45;host</text>
</g>
<!-- gccW_m -->
<g id="node21" class="node">
<title>gccW_m</title>
<ellipse fill="#ffddcc" stroke="black" cx="687" cy="-194.87" rx="48.58" ry="26.74"/>
<text text-anchor="middle" x="687" y="-198.67" font-family="Times,serif" font-size="14.00">make</text>
<text text-anchor="middle" x="687" y="-183.67" font-family="Times,serif" font-size="14.00">all&#45;host</text>
</g>
<!-- gccW_ih&#45;&gt;gccW_m -->
<g id="edge15" class="edge">
<title>gccW_ih&#45;&gt;gccW_m</title>
<path fill="none" stroke="black" d="M687,-257.29C687,-249.32 687,-240.43 687,-231.94"/>
<polygon fill="black" stroke="black" points="690.5,-231.87 687,-221.87 683.5,-231.87 690.5,-231.87"/>
</g>
<!-- gccW_it -->
<g id="node18" class="node">
<title>gccW_it</title>
<ellipse fill="#ffddcc" stroke="black" cx="560" cy="-284.61" rx="45.92" ry="26.74"/>
<text text-anchor="middle" x="560" y="-288.41" font-family="Times,serif" font-size="14.00">install</text>
<text text-anchor="middle" x="560" y="-273.41" font-family="Times,serif" font-size="14.00">&#45;target</text>
</g>
<!-- gcc_m_x -->
<g id="node19" class="node">
<title>gcc_m_x</title>
<ellipse fill="#ddddff" stroke="black" cx="560" cy="-194.87" rx="59.59" ry="18"/>
<text text-anchor="middle" x="560" y="-191.17" font-family="Times,serif" font-size="14.00">GCC make</text>
</g>
<!-- gccW_it&#45;&gt;gcc_m_x -->
<g id="edge20" class="edge">
<title>gccW_it&#45;&gt;gcc_m_x</title>
<path fill="none" stroke="black" d="M560,-257.29C560,-246.53 560,-234.1 560,-223.24"/>
<polygon fill="black" stroke="black" points="563.5,-223.03 560,-213.03 556.5,-223.03 563.5,-223.03"/>
</g>
<!-- libc_i_x -->
<g id="node20" class="node">
<title>libc_i_x</title>
<ellipse fill="#ddddff" stroke="black" cx="589" cy="-42" rx="63.89" ry="18"/>
<text text-anchor="middle" x="589" y="-38.3" font-family="Times,serif" font-size="14.00">LibC install</text>
</g>
<!-- gccW_c -->
<g id="node22" class="node">
<title>gccW_c</title>
<ellipse fill="#ffddcc" stroke="black" cx="692" cy="-114" rx="30.59" ry="18"/>
<text text-anchor="middle" x="692" y="-110.3" font-family="Times,serif" font-size="14.00">conf</text>
</g>
<!-- gccW_m&#45;&gt;gccW_c -->
<g id="edge16" class="edge">
<title>gccW_m&#45;&gt;gccW_c</title>
<path fill="none" stroke="black" d="M688.66,-167.61C689.18,-159.51 689.75,-150.57 690.26,-142.39"/>
<polygon fill="black" stroke="black" points="693.77,-142.42 690.91,-132.22 686.78,-141.98 693.77,-142.42"/>
</g>
<!-- gccW_c&#45;&gt;binW_i -->
<g id="edge18" class="edge">
<title>gccW_c&#45;&gt;binW_i</title>
<path fill="none" stroke="black" d="M709.72,-129.2C721.08,-139.08 735.44,-153.11 745,-168 758.77,-189.44 753.7,-198.9 765,-221.74 771.31,-234.49 779.57,-247.93 786.86,-259.02"/>
<polygon fill="black" stroke="black" points="783.96,-260.99 792.44,-267.34 789.78,-257.09 783.96,-260.99"/>
</g>
<!-- gccW_c&#45;&gt;libc_i_x -->
<g id="edge19" class="edge">
<title>gccW_c&#45;&gt;libc_i_x</title>
<path fill="none" stroke="black" d="M672.63,-99.83C658.04,-89.92 637.72,-76.11 620.77,-64.59"/>
<polygon fill="black" stroke="black" points="622.49,-61.53 612.25,-58.8 618.56,-67.32 622.49,-61.53"/>
</g>
<!-- gccW_s -->
<g id="node23" class="node">
<title>gccW_s</title>
<ellipse fill="white" stroke="black" cx="698" cy="-42" rx="27" ry="18"/>
<text text-anchor="middle" x="698" y="-38.3" font-family="Times,serif" font-size="14.00">src</text>
</g>
<!-- gccW_c&#45;&gt;gccW_s -->
<g id="edge17" class="edge">
<title>gccW_c&#45;&gt;gccW_s</title>
<path fill="none" stroke="black" d="M693.48,-95.7C694.14,-87.98 694.94,-78.71 695.68,-70.11"/>
<polygon fill="black" stroke="black" points="699.17,-70.37 696.53,-60.1 692.19,-69.77 699.17,-70.37"/>
</g>
<!-- libcW_i -->
<g id="node24" class="node">
<title>libcW_i</title>
<ellipse fill="#ffddcc" stroke="black" cx="416" cy="-284.61" rx="39.79" ry="18"/>
<text text-anchor="middle" x="416" y="-280.91" font-family="Times,serif" font-size="14.00">install</text>
</g>
<!-- libc_m_x -->
<g id="node25" class="node">
<title>libc_m_x</title>
<ellipse fill="#ddddff" stroke="black" cx="416" cy="-194.87" rx="59.59" ry="18"/>
<text text-anchor="middle" x="416" y="-191.17" font-family="Times,serif" font-size="14.00">LibC make</text>
</g>
<!-- libcW_i&#45;&gt;libc_m_x -->
<g id="edge21" class="edge">
<title>libcW_i&#45;&gt;libc_m_x</title>
<path fill="none" stroke="black" d="M416,-266.28C416,-253.94 416,-237.12 416,-223.01"/>
<polygon fill="black" stroke="black" points="419.5,-222.87 416,-212.87 412.5,-222.87 419.5,-222.87"/>
</g>
</g>
</svg>
