<?xml version="1.0" encoding="UTF-8" standalone="no"?>
<!DOCTYPE svg PUBLIC "-//W3C//DTD SVG 1.1//EN"
 "http://www.w3.org/Graphics/SVG/1.1/DTD/svg11.dtd">
<!-- Generated by graphviz version 2.43.0 (0)
 -->
<!-- Title: %3 Pages: 1 -->
<svg width="468pt" height="445pt"
 viewBox="0.00 0.00 468.00 445.22" xmlns="http://www.w3.org/2000/svg" xmlns:xlink="http://www.w3.org/1999/xlink">
<g id="graph0" class="graph" transform="scale(1 1) rotate(0) translate(4 441.22)">
<title>%3</title>
<polygon fill="white" stroke="transparent" points="-4,4 -4,-441.22 464,-441.22 464,4 -4,4"/>
<text text-anchor="middle" x="230" y="-422.02" font-family="Times,serif" font-size="14.00">Dependency Tree for</text>
<text text-anchor="middle" x="230" y="-407.02" font-family="Times,serif" font-size="14.00">Canadian Cross Compiler Generation</text>
<g id="clust1" class="cluster">
<title>cluster_canadian</title>
<polygon fill="#fff8f8" stroke="black" points="8,-8 8,-391.22 452,-391.22 452,-8 8,-8"/>
<text text-anchor="middle" x="230" y="-376.02" font-family="Times,serif" font-size="14.00">Canadian Cross</text>
</g>
<g id="clust2" class="cluster">
<title>cluster_binW</title>
<polygon fill="white" stroke="black" points="340,-24.87 340,-351.35 444,-351.35 444,-24.87 340,-24.87"/>
<text text-anchor="middle" x="392" y="-336.15" font-family="Times,serif" font-size="14.00">Binutils Win</text>
</g>
<g id="clust3" class="cluster">
<title>cluster_gccW</title>
<polygon fill="white" stroke="black" points="120,-16 120,-360.22 332,-360.22 332,-16 120,-16"/>
<text text-anchor="middle" x="226" y="-345.02" font-family="Times,serif" font-size="14.00">GCC Win</text>
</g>
<g id="clust5" class="cluster">
<title>cluster_libcW</title>
<polygon fill="white" stroke="black" points="16,-177.74 16,-351.35 112,-351.35 112,-177.74 16,-177.74"/>
<text text-anchor="middle" x="64" y="-336.15" font-family="Times,serif" font-size="14.00">LibC Win</text>
</g>
<!-- binW_i -->
<g id="node1" class="node">
<title>binW_i</title>
<ellipse fill="#ffddcc" stroke="black" cx="392" cy="-302.35" rx="39.79" ry="18"/>
<text text-anchor="middle" x="392" y="-298.65" font-family="Times,serif" font-size="14.00">install</text>
</g>
<!-- binW_m -->
<g id="node2" class="node">
<title>binW_m</title>
<ellipse fill="#ffddcc" stroke="black" cx="398" cy="-212.61" rx="36" ry="18"/>
<text text-anchor="middle" x="398" y="-208.91" font-family="Times,serif" font-size="14.00">make</text>
</g>
<!-- binW_i&#45;&gt;binW_m -->
<g id="edge1" class="edge">
<title>binW_i&#45;&gt;binW_m</title>
<path fill="none" stroke="black" d="M393.19,-284.02C394.03,-271.68 395.18,-254.86 396.14,-240.75"/>
<polygon fill="black" stroke="black" points="399.65,-240.83 396.84,-230.61 392.66,-240.35 399.65,-240.83"/>
</g>
<!-- binW_c -->
<g id="node3" class="node">
<title>binW_c</title>
<ellipse fill="#ffddcc" stroke="black" cx="398" cy="-131.74" rx="30.59" ry="18"/>
<text text-anchor="middle" x="398" y="-128.04" font-family="Times,serif" font-size="14.00">conf</text>
</g>
<!-- binW_m&#45;&gt;binW_c -->
<g id="edge2" class="edge">
<title>binW_m&#45;&gt;binW_c</title>
<path fill="none" stroke="black" d="M398,-194.5C398,-184.47 398,-171.58 398,-160.16"/>
<polygon fill="black" stroke="black" points="401.5,-159.82 398,-149.82 394.5,-159.82 401.5,-159.82"/>
</g>
<!-- binW_s -->
<g id="node4" class="node">
<title>binW_s</title>
<ellipse fill="white" stroke="black" cx="398" cy="-50.87" rx="27" ry="18"/>
<text text-anchor="middle" x="398" y="-47.17" font-family="Times,serif" font-size="14.00">src</text>
</g>
<!-- binW_c&#45;&gt;binW_s -->
<g id="edge3" class="edge">
<title>binW_c&#45;&gt;binW_s</title>
<path fill="none" stroke="black" d="M398,-113.63C398,-103.6 398,-90.71 398,-79.29"/>
<polygon fill="black" stroke="black" points="401.5,-78.95 398,-68.95 394.5,-78.95 401.5,-78.95"/>
</g>
<!-- gccW_ih -->
<g id="node5" class="node">
<title>gccW_ih</title>
<ellipse fill="#ffddcc" stroke="black" cx="281" cy="-302.35" rx="43.27" ry="26.74"/>
<text text-anchor="middle" x="281" y="-306.15" font-family="Times,serif" font-size="14.00">install</text>
<text text-anchor="middle" x="281" y="-291.15" font-family="Times,serif" font-size="14.00">&#45;host</text>
</g>
<!-- gccW_m -->
<g id="node9" class="node">
<title>gccW_m</title>
<ellipse fill="#ffddcc" stroke="black" cx="275" cy="-212.61" rx="48.58" ry="26.74"/>
<text text-anchor="middle" x="275" y="-216.41" font-family="Times,serif" font-size="14.00">make</text>
<text text-anchor="middle" x="275" y="-201.41" font-family="Times,serif" font-size="14.00">all&#45;host</text>
</g>
<!-- gccW_ih&#45;&gt;gccW_m -->
<g id="edge4" class="edge">
<title>gccW_ih&#45;&gt;gccW_m</title>
<path fill="none" stroke="black" d="M279.23,-275.5C278.68,-267.45 278.06,-258.42 277.47,-249.8"/>
<polygon fill="black" stroke="black" points="280.95,-249.32 276.78,-239.58 273.97,-249.79 280.95,-249.32"/>
</g>
<!-- gccW_it -->
<g id="node6" class="node">
<title>gccW_it</title>
<ellipse fill="#ffddcc" stroke="black" cx="174" cy="-302.35" rx="45.92" ry="26.74"/>
<text text-anchor="middle" x="174" y="-306.15" font-family="Times,serif" font-size="14.00">install</text>
<text text-anchor="middle" x="174" y="-291.15" font-family="Times,serif" font-size="14.00">&#45;target</text>
</g>
<!-- gcc_m_x -->
<g id="node7" class="node">
<title>gcc_m_x</title>
<ellipse fill="#ddddff" stroke="black" cx="169" cy="-212.61" rx="38.78" ry="26.74"/>
<text text-anchor="middle" x="169" y="-216.41" font-family="Times,serif" font-size="14.00">GCC</text>
<text text-anchor="middle" x="169" y="-201.41" font-family="Times,serif" font-size="14.00">make</text>
</g>
<!-- gccW_it&#45;&gt;gcc_m_x -->
<g id="edge9" class="edge">
<title>gccW_it&#45;&gt;gcc_m_x</title>
<path fill="none" stroke="black" d="M172.5,-275.03C172.05,-267.06 171.54,-258.17 171.06,-249.68"/>
<polygon fill="black" stroke="black" points="174.55,-249.4 170.48,-239.61 167.56,-249.8 174.55,-249.4"/>
</g>
<!-- libc_i_x -->
<g id="node8" class="node">
<title>libc_i_x</title>
<ellipse fill="#ddddff" stroke="black" cx="198" cy="-50.87" rx="43.27" ry="26.74"/>
<text text-anchor="middle" x="198" y="-54.67" font-family="Times,serif" font-size="14.00">LibC</text>
<text text-anchor="middle" x="198" y="-39.67" font-family="Times,serif" font-size="14.00">install</text>
</g>
<!-- gccW_c -->
<g id="node10" class="node">
<title>gccW_c</title>
<ellipse fill="#ffddcc" stroke="black" cx="280" cy="-131.74" rx="30.59" ry="18"/>
<text text-anchor="middle" x="280" y="-128.04" font-family="Times,serif" font-size="14.00">conf</text>
</g>
<!-- gccW_m&#45;&gt;gccW_c -->
<g id="edge5" class="edge">
<title>gccW_m&#45;&gt;gccW_c</title>
<path fill="none" stroke="black" d="M276.66,-185.35C277.18,-177.25 277.75,-168.31 278.26,-160.13"/>
<polygon fill="black" stroke="black" points="281.77,-160.16 278.91,-149.96 274.78,-159.72 281.77,-160.16"/>
</g>
<!-- gccW_c&#45;&gt;binW_i -->
<g id="edge7" class="edge">
<title>gccW_c&#45;&gt;binW_i</title>
<path fill="none" stroke="black" d="M300.05,-145.61C311.15,-153.65 324.4,-164.9 333,-177.74 349.05,-201.71 340.77,-213.36 353,-239.48 358.99,-252.27 367.14,-265.63 374.44,-276.65"/>
<polygon fill="black" stroke="black" points="371.55,-278.62 380.06,-284.93 377.34,-274.69 371.55,-278.62"/>
</g>
<!-- gccW_c&#45;&gt;libc_i_x -->
<g id="edge8" class="edge">
<title>gccW_c&#45;&gt;libc_i_x</title>
<path fill="none" stroke="black" d="M264.58,-115.91C254.36,-106.08 240.61,-92.85 228.26,-80.97"/>
<polygon fill="black" stroke="black" points="230.43,-78.2 220.79,-73.79 225.57,-83.25 230.43,-78.2"/>
</g>
<!-- gccW_s -->
<g id="node11" class="node">
<title>gccW_s</title>
<ellipse fill="white" stroke="black" cx="286" cy="-50.87" rx="27" ry="18"/>
<text text-anchor="middle" x="286" y="-47.17" font-family="Times,serif" font-size="14.00">src</text>
</g>
<!-- gccW_c&#45;&gt;gccW_s -->
<g id="edge6" class="edge">
<title>gccW_c&#45;&gt;gccW_s</title>
<path fill="none" stroke="black" d="M281.3,-113.63C282.07,-103.5 283.07,-90.44 283.94,-78.94"/>
<polygon fill="black" stroke="black" points="287.43,-79.19 284.7,-68.95 280.45,-78.66 287.43,-79.19"/>
</g>
<!-- libcW_i -->
<g id="node12" class="node">
<title>libcW_i</title>
<ellipse fill="#ffddcc" stroke="black" cx="64" cy="-302.35" rx="39.79" ry="18"/>
<text text-anchor="middle" x="64" y="-298.65" font-family="Times,serif" font-size="14.00">install</text>
</g>
<!-- libc_m_x -->
<g id="node13" class="node">
<title>libc_m_x</title>
<ellipse fill="#ddddff" stroke="black" cx="64" cy="-212.61" rx="38.78" ry="26.74"/>
<text text-anchor="middle" x="64" y="-216.41" font-family="Times,serif" font-size="14.00">LibC</text>
<text text-anchor="middle" x="64" y="-201.41" font-family="Times,serif" font-size="14.00">make</text>
</g>
<!-- libcW_i&#45;&gt;libc_m_x -->
<g id="edge10" class="edge">
<title>libcW_i&#45;&gt;libc_m_x</title>
<path fill="none" stroke="black" d="M64,-284.02C64,-274.2 64,-261.56 64,-249.69"/>
<polygon fill="black" stroke="black" points="67.5,-249.56 64,-239.56 60.5,-249.56 67.5,-249.56"/>
</g>
</g>
</svg>
