<?xml version="1.0" encoding="UTF-8" standalone="no"?>
<!DOCTYPE svg PUBLIC "-//W3C//DTD SVG 1.1//EN"
 "http://www.w3.org/Graphics/SVG/1.1/DTD/svg11.dtd">
<!-- Generated by graphviz version 2.43.0 (0)
 -->
<!-- Title: %3 Pages: 1 -->
<svg width="800pt" height="445pt"
 viewBox="0.00 0.00 800.00 445.22" xmlns="http://www.w3.org/2000/svg" xmlns:xlink="http://www.w3.org/1999/xlink">
<g id="graph0" class="graph" transform="scale(1 1) rotate(0) translate(4 441.22)">
<title>%3</title>
<polygon fill="white" stroke="transparent" points="-4,4 -4,-441.22 796,-441.22 796,4 -4,4"/>
<text text-anchor="middle" x="396" y="-422.02" font-family="Times,serif" font-size="14.00">Dependency Tree for Native Cross Compiler</text>
<text text-anchor="middle" x="396" y="-407.02" font-family="Times,serif" font-size="14.00">and Canadian Cross Compiler Generation</text>
<g id="clust1" class="cluster">
<title>cluster_host</title>
<polygon fill="#f4f4ff" stroke="black" points="8,-16.87 8,-382.35 332,-382.35 332,-16.87 8,-16.87"/>
<text text-anchor="middle" x="170" y="-367.15" font-family="Times,serif" font-size="14.00">Native Cross</text>
</g>
<g id="clust2" class="cluster">
<title>cluster_bin</title>
<polygon fill="white" stroke="black" points="228,-24.87 228,-351.35 324,-351.35 324,-24.87 228,-24.87"/>
<text text-anchor="middle" x="276" y="-336.15" font-family="Times,serif" font-size="14.00">Binutils</text>
</g>
<g id="clust3" class="cluster">
<title>cluster_gcc</title>
<polygon fill="white" stroke="black" points="121,-24.87 121,-351.35 217,-351.35 217,-24.87 121,-24.87"/>
<text text-anchor="middle" x="169" y="-336.15" font-family="Times,serif" font-size="14.00">GCC</text>
</g>
<g id="clust4" class="cluster">
<title>cluster_libc</title>
<polygon fill="white" stroke="black" points="16,-24.87 16,-351.35 112,-351.35 112,-24.87 16,-24.87"/>
<text text-anchor="middle" x="64" y="-336.15" font-family="Times,serif" font-size="14.00">LibC</text>
</g>
<g id="clust6" class="cluster">
<title>cluster_canadian</title>
<polygon fill="#fff8f8" stroke="black" points="340,-8 340,-391.22 784,-391.22 784,-8 340,-8"/>
<text text-anchor="middle" x="562" y="-376.02" font-family="Times,serif" font-size="14.00">Canadian Cross</text>
</g>
<g id="clust7" class="cluster">
<title>cluster_binW</title>
<polygon fill="white" stroke="black" points="672,-24.87 672,-351.35 776,-351.35 776,-24.87 672,-24.87"/>
<text text-anchor="middle" x="724" y="-336.15" font-family="Times,serif" font-size="14.00">Binutils Win</text>
</g>
<g id="clust8" class="cluster">
<title>cluster_gccW</title>
<polygon fill="white" stroke="black" points="452,-16 452,-360.22 664,-360.22 664,-16 452,-16"/>
<text text-anchor="middle" x="558" y="-345.02" font-family="Times,serif" font-size="14.00">GCC Win</text>
</g>
<g id="clust10" class="cluster">
<title>cluster_libcW</title>
<polygon fill="white" stroke="black" points="348,-177.74 348,-351.35 444,-351.35 444,-177.74 348,-177.74"/>
<text text-anchor="middle" x="396" y="-336.15" font-family="Times,serif" font-size="14.00">LibC Win</text>
</g>
<!-- bin_i -->
<g id="node1" class="node">
<title>bin_i</title>
<ellipse fill="#ddddff" stroke="black" cx="276" cy="-302.35" rx="39.79" ry="18"/>
<text text-anchor="middle" x="276" y="-298.65" font-family="Times,serif" font-size="14.00">install</text>
</g>
<!-- bin_m -->
<g id="node2" class="node">
<title>bin_m</title>
<ellipse fill="#ddddff" stroke="black" cx="280" cy="-212.61" rx="36" ry="18"/>
<text text-anchor="middle" x="280" y="-208.91" font-family="Times,serif" font-size="14.00">make</text>
</g>
<!-- bin_i&#45;&gt;bin_m -->
<g id="edge1" class="edge">
<title>bin_i&#45;&gt;bin_m</title>
<path fill="none" stroke="black" d="M276.79,-284.02C277.35,-271.68 278.12,-254.86 278.76,-240.75"/>
<polygon fill="black" stroke="black" points="282.27,-240.76 279.22,-230.61 275.27,-240.44 282.27,-240.76"/>
</g>
<!-- bin_c -->
<g id="node3" class="node">
<title>bin_c</title>
<ellipse fill="#ddddff" stroke="black" cx="280" cy="-131.74" rx="30.59" ry="18"/>
<text text-anchor="middle" x="280" y="-128.04" font-family="Times,serif" font-size="14.00">conf</text>
</g>
<!-- bin_m&#45;&gt;bin_c -->
<g id="edge2" class="edge">
<title>bin_m&#45;&gt;bin_c</title>
<path fill="none" stroke="black" d="M280,-194.5C280,-184.47 280,-171.58 280,-160.16"/>
<polygon fill="black" stroke="black" points="283.5,-159.82 280,-149.82 276.5,-159.82 283.5,-159.82"/>
</g>
<!-- bin_s -->
<g id="node4" class="node">
<title>bin_s</title>
<ellipse fill="white" stroke="black" cx="280" cy="-50.87" rx="27" ry="18"/>
<text text-anchor="middle" x="280" y="-47.17" font-family="Times,serif" font-size="14.00">src</text>
</g>
<!-- bin_c&#45;&gt;bin_s -->
<g id="edge3" class="edge">
<title>bin_c&#45;&gt;bin_s</title>
<path fill="none" stroke="black" d="M280,-113.63C280,-103.6 280,-90.71 280,-79.29"/>
<polygon fill="black" stroke="black" points="283.5,-78.95 280,-68.95 276.5,-78.95 283.5,-78.95"/>
</g>
<!-- gcc_i -->
<g id="node5" class="node">
<title>gcc_i</title>
<ellipse fill="#ddddff" stroke="black" cx="169" cy="-302.35" rx="39.79" ry="18"/>
<text text-anchor="middle" x="169" y="-298.65" font-family="Times,serif" font-size="14.00">install</text>
</g>
<!-- gcc_m -->
<g id="node6" class="node">
<title>gcc_m</title>
<ellipse fill="#ddddff" stroke="black" cx="170" cy="-212.61" rx="36" ry="18"/>
<text text-anchor="middle" x="170" y="-208.91" font-family="Times,serif" font-size="14.00">make</text>
</g>
<!-- gcc_i&#45;&gt;gcc_m -->
<g id="edge4" class="edge">
<title>gcc_i&#45;&gt;gcc_m</title>
<path fill="none" stroke="black" d="M169.2,-284.02C169.34,-271.68 169.53,-254.86 169.69,-240.75"/>
<polygon fill="black" stroke="black" points="173.19,-240.65 169.81,-230.61 166.19,-240.57 173.19,-240.65"/>
</g>
<!-- gcc_c -->
<g id="node7" class="node">
<title>gcc_c</title>
<ellipse fill="#ddddff" stroke="black" cx="174" cy="-131.74" rx="30.59" ry="18"/>
<text text-anchor="middle" x="174" y="-128.04" font-family="Times,serif" font-size="14.00">conf</text>
</g>
<!-- gcc_m&#45;&gt;gcc_c -->
<g id="edge5" class="edge">
<title>gcc_m&#45;&gt;gcc_c</title>
<path fill="none" stroke="black" d="M170.87,-194.5C171.38,-184.37 172.04,-171.31 172.63,-159.81"/>
<polygon fill="black" stroke="black" points="176.12,-159.98 173.13,-149.82 169.13,-159.63 176.12,-159.98"/>
</g>
<!-- gcc_c&#45;&gt;bin_i -->
<g id="edge10" class="edge">
<title>gcc_c&#45;&gt;bin_i</title>
<path fill="none" stroke="black" d="M190.21,-147.25C198.59,-155.49 208.42,-166.41 215,-177.74 229.48,-202.68 222.47,-213.5 235,-239.48 241.23,-252.39 249.78,-265.77 257.47,-276.77"/>
<polygon fill="black" stroke="black" points="254.72,-278.93 263.39,-285.02 260.41,-274.85 254.72,-278.93"/>
</g>
<!-- gcc_s -->
<g id="node8" class="node">
<title>gcc_s</title>
<ellipse fill="white" stroke="black" cx="174" cy="-50.87" rx="27" ry="18"/>
<text text-anchor="middle" x="174" y="-47.17" font-family="Times,serif" font-size="14.00">src</text>
</g>
<!-- gcc_c&#45;&gt;gcc_s -->
<g id="edge6" class="edge">
<title>gcc_c&#45;&gt;gcc_s</title>
<path fill="none" stroke="black" d="M174,-113.63C174,-103.6 174,-90.71 174,-79.29"/>
<polygon fill="black" stroke="black" points="177.5,-78.95 174,-68.95 170.5,-78.95 177.5,-78.95"/>
</g>
<!-- libc_i -->
<g id="node9" class="node">
<title>libc_i</title>
<ellipse fill="#ddddff" stroke="black" cx="64" cy="-302.35" rx="39.79" ry="18"/>
<text text-anchor="middle" x="64" y="-298.65" font-family="Times,serif" font-size="14.00">install</text>
</g>
<!-- libc_m -->
<g id="node10" class="node">
<title>libc_m</title>
<ellipse fill="#ddddff" stroke="black" cx="60" cy="-212.61" rx="36" ry="18"/>
<text text-anchor="middle" x="60" y="-208.91" font-family="Times,serif" font-size="14.00">make</text>
</g>
<!-- libc_i&#45;&gt;libc_m -->
<g id="edge7" class="edge">
<title>libc_i&#45;&gt;libc_m</title>
<path fill="none" stroke="black" d="M63.21,-284.02C62.65,-271.68 61.88,-254.86 61.24,-240.75"/>
<polygon fill="black" stroke="black" points="64.73,-240.44 60.78,-230.61 57.73,-240.76 64.73,-240.44"/>
</g>
<!-- libc_c -->
<g id="node11" class="node">
<title>libc_c</title>
<ellipse fill="#ddddff" stroke="black" cx="66" cy="-131.74" rx="30.59" ry="18"/>
<text text-anchor="middle" x="66" y="-128.04" font-family="Times,serif" font-size="14.00">conf</text>
</g>
<!-- libc_m&#45;&gt;libc_c -->
<g id="edge8" class="edge">
<title>libc_m&#45;&gt;libc_c</title>
<path fill="none" stroke="black" d="M61.3,-194.5C62.07,-184.37 63.07,-171.31 63.94,-159.81"/>
<polygon fill="black" stroke="black" points="67.43,-160.06 64.7,-149.82 60.45,-159.53 67.43,-160.06"/>
</g>
<!-- libc_c&#45;&gt;gcc_i -->
<g id="edge11" class="edge">
<title>libc_c&#45;&gt;gcc_i</title>
<path fill="none" stroke="black" d="M81.39,-147.39C89.35,-155.67 98.7,-166.58 105,-177.74 119.17,-202.86 112.05,-213.71 125,-239.48 131.59,-252.58 140.76,-265.98 149.02,-276.95"/>
<polygon fill="black" stroke="black" points="146.5,-279.4 155.39,-285.16 152.03,-275.12 146.5,-279.4"/>
</g>
<!-- libc_s -->
<g id="node12" class="node">
<title>libc_s</title>
<ellipse fill="white" stroke="black" cx="66" cy="-50.87" rx="27" ry="18"/>
<text text-anchor="middle" x="66" y="-47.17" font-family="Times,serif" font-size="14.00">src</text>
</g>
<!-- libc_c&#45;&gt;libc_s -->
<g id="edge9" class="edge">
<title>libc_c&#45;&gt;libc_s</title>
<path fill="none" stroke="black" d="M66,-113.63C66,-103.6 66,-90.71 66,-79.29"/>
<polygon fill="black" stroke="black" points="69.5,-78.95 66,-68.95 62.5,-78.95 69.5,-78.95"/>
</g>
<!-- binW_i -->
<g id="node13" class="node">
<title>binW_i</title>
<ellipse fill="#ffddcc" stroke="black" cx="724" cy="-302.35" rx="39.79" ry="18"/>
<text text-anchor="middle" x="724" y="-298.65" font-family="Times,serif" font-size="14.00">install</text>
</g>
<!-- binW_m -->
<g id="node14" class="node">
<title>binW_m</title>
<ellipse fill="#ffddcc" stroke="black" cx="730" cy="-212.61" rx="36" ry="18"/>
<text text-anchor="middle" x="730" y="-208.91" font-family="Times,serif" font-size="14.00">make</text>
</g>
<!-- binW_i&#45;&gt;binW_m -->
<g id="edge12" class="edge">
<title>binW_i&#45;&gt;binW_m</title>
<path fill="none" stroke="black" d="M725.19,-284.02C726.03,-271.68 727.18,-254.86 728.14,-240.75"/>
<polygon fill="black" stroke="black" points="731.65,-240.83 728.84,-230.61 724.66,-240.35 731.65,-240.83"/>
</g>
<!-- binW_c -->
<g id="node15" class="node">
<title>binW_c</title>
<ellipse fill="#ffddcc" stroke="black" cx="730" cy="-131.74" rx="30.59" ry="18"/>
<text text-anchor="middle" x="730" y="-128.04" font-family="Times,serif" font-size="14.00">conf</text>
</g>
<!-- binW_m&#45;&gt;binW_c -->
<g id="edge13" class="edge">
<title>binW_m&#45;&gt;binW_c</title>
<path fill="none" stroke="black" d="M730,-194.5C730,-184.47 730,-171.58 730,-160.16"/>
<polygon fill="black" stroke="black" points="733.5,-159.82 730,-149.82 726.5,-159.82 733.5,-159.82"/>
</g>
<!-- binW_s -->
<g id="node16" class="node">
<title>binW_s</title>
<ellipse fill="white" stroke="black" cx="730" cy="-50.87" rx="27" ry="18"/>
<text text-anchor="middle" x="730" y="-47.17" font-family="Times,serif" font-size="14.00">src</text>
</g>
<!-- binW_c&#45;&gt;binW_s -->
<g id="edge14" class="edge">
<title>binW_c&#45;&gt;binW_s</title>
<path fill="none" stroke="black" d="M730,-113.63C730,-103.6 730,-90.71 730,-79.29"/>
<polygon fill="black" stroke="black" points="733.5,-78.95 730,-68.95 726.5,-78.95 733.5,-78.95"/>
</g>
<!-- gccW_ih -->
<g id="node17" class="node">
<title>gccW_ih</title>
<ellipse fill="#ffddcc" stroke="black" cx="613" cy="-302.35" rx="43.27" ry="26.74"/>
<text text-anchor="middle" x="613" y="-306.15" font-family="Times,serif" font-size="14.00">install</text>
<text text-anchor="middle" x="613" y="-291.15" font-family="Times,serif" font-size="14.00">&#45;host</text>
</g>
<!-- gccW_m -->
<g id="node21" class="node">
<title>gccW_m</title>
<ellipse fill="#ffddcc" stroke="black" cx="607" cy="-212.61" rx="48.58" ry="26.74"/>
<text text-anchor="middle" x="607" y="-216.41" font-family="Times,serif" font-size="14.00">make</text>
<text text-anchor="middle" x="607" y="-201.41" font-family="Times,serif" font-size="14.00">all&#45;host</text>
</g>
<!-- gccW_ih&#45;&gt;gccW_m -->
<g id="edge15" class="edge">
<title>gccW_ih&#45;&gt;gccW_m</title>
<path fill="none" stroke="black" d="M611.23,-275.5C610.68,-267.45 610.06,-258.42 609.47,-249.8"/>
<polygon fill="black" stroke="black" points="612.95,-249.32 608.78,-239.58 605.97,-249.79 612.95,-249.32"/>
</g>
<!-- gccW_it -->
<g id="node18" class="node">
<title>gccW_it</title>
<ellipse fill="#ffddcc" stroke="black" cx="506" cy="-302.35" rx="45.92" ry="26.74"/>
<text text-anchor="middle" x="506" y="-306.15" font-family="Times,serif" font-size="14.00">install</text>
<text text-anchor="middle" x="506" y="-291.15" font-family="Times,serif" font-size="14.00">&#45;target</text>
</g>
<!-- gcc_m_x -->
<g id="node19" class="node">
<title>gcc_m_x</title>
<ellipse fill="#ddddff" stroke="black" cx="501" cy="-212.61" rx="38.78" ry="26.74"/>
<text text-anchor="middle" x="501" y="-216.41" font-family="Times,serif" font-size="14.00">GCC</text>
<text text-anchor="middle" x="501" y="-201.41" font-family="Times,serif" font-size="14.00">make</text>
</g>
<!-- gccW_it&#45;&gt;gcc_m_x -->
<g id="edge20" class="edge">
<title>gccW_it&#45;&gt;gcc_m_x</title>
<path fill="none" stroke="black" d="M504.5,-275.03C504.05,-267.06 503.54,-258.17 503.06,-249.68"/>
<polygon fill="black" stroke="black" points="506.55,-249.4 502.48,-239.61 499.56,-249.8 506.55,-249.4"/>
</g>
<!-- libc_i_x -->
<g id="node20" class="node">
<title>libc_i_x</title>
<ellipse fill="#ddddff" stroke="black" cx="530" cy="-50.87" rx="43.27" ry="26.74"/>
<text text-anchor="middle" x="530" y="-54.67" font-family="Times,serif" font-size="14.00">LibC</text>
<text text-anchor="middle" x="530" y="-39.67" font-family="Times,serif" font-size="14.00">install</text>
</g>
<!-- gccW_c -->
<g id="node22" class="node">
<title>gccW_c</title>
<ellipse fill="#ffddcc" stroke="black" cx="612" cy="-131.74" rx="30.59" ry="18"/>
<text text-anchor="middle" x="612" y="-128.04" font-family="Times,serif" font-size="14.00">conf</text>
</g>
<!-- gccW_m&#45;&gt;gccW_c -->
<g id="edge16" class="edge">
<title>gccW_m&#45;&gt;gccW_c</title>
<path fill="none" stroke="black" d="M608.66,-185.35C609.18,-177.25 609.75,-168.31 610.26,-160.13"/>
<polygon fill="black" stroke="black" points="613.77,-160.16 610.91,-149.96 606.78,-159.72 613.77,-160.16"/>
</g>
<!-- gccW_c&#45;&gt;binW_i -->
<g id="edge18" class="edge">
<title>gccW_c&#45;&gt;binW_i</title>
<path fill="none" stroke="black" d="M632.05,-145.61C643.15,-153.65 656.4,-164.9 665,-177.74 681.05,-201.71 672.77,-213.36 685,-239.48 690.99,-252.27 699.14,-265.63 706.44,-276.65"/>
<polygon fill="black" stroke="black" points="703.55,-278.62 712.06,-284.93 709.34,-274.69 703.55,-278.62"/>
</g>
<!-- gccW_c&#45;&gt;libc_i_x -->
<g id="edge19" class="edge">
<title>gccW_c&#45;&gt;libc_i_x</title>
<path fill="none" stroke="black" d="M596.58,-115.91C586.36,-106.08 572.61,-92.85 560.26,-80.97"/>
<polygon fill="black" stroke="black" points="562.43,-78.2 552.79,-73.79 557.57,-83.25 562.43,-78.2"/>
</g>
<!-- gccW_s -->
<g id="node23" class="node">
<title>gccW_s</title>
<ellipse fill="white" stroke="black" cx="618" cy="-50.87" rx="27" ry="18"/>
<text text-anchor="middle" x="618" y="-47.17" font-family="Times,serif" font-size="14.00">src</text>
</g>
<!-- gccW_c&#45;&gt;gccW_s -->
<g id="edge17" class="edge">
<title>gccW_c&#45;&gt;gccW_s</title>
<path fill="none" stroke="black" d="M613.3,-113.63C614.07,-103.5 615.07,-90.44 615.94,-78.94"/>
<polygon fill="black" stroke="black" points="619.43,-79.19 616.7,-68.95 612.45,-78.66 619.43,-79.19"/>
</g>
<!-- libcW_i -->
<g id="node24" class="node">
<title>libcW_i</title>
<ellipse fill="#ffddcc" stroke="black" cx="396" cy="-302.35" rx="39.79" ry="18"/>
<text text-anchor="middle" x="396" y="-298.65" font-family="Times,serif" font-size="14.00">install</text>
</g>
<!-- libc_m_x -->
<g id="node25" class="node">
<title>libc_m_x</title>
<ellipse fill="#ddddff" stroke="black" cx="396" cy="-212.61" rx="38.78" ry="26.74"/>
<text text-anchor="middle" x="396" y="-216.41" font-family="Times,serif" font-size="14.00">LibC</text>
<text text-anchor="middle" x="396" y="-201.41" font-family="Times,serif" font-size="14.00">make</text>
</g>
<!-- libcW_i&#45;&gt;libc_m_x -->
<g id="edge21" class="edge">
<title>libcW_i&#45;&gt;libc_m_x</title>
<path fill="none" stroke="black" d="M396,-284.02C396,-274.2 396,-261.56 396,-249.69"/>
<polygon fill="black" stroke="black" points="399.5,-249.56 396,-239.56 392.5,-249.56 399.5,-249.56"/>
</g>
</g>
</svg>
