<?xml version="1.0" encoding="UTF-8" standalone="no"?>
<!DOCTYPE svg PUBLIC "-//W3C//DTD SVG 1.1//EN"
 "http://www.w3.org/Graphics/SVG/1.1/DTD/svg11.dtd">
<!-- Generated by graphviz version 2.43.0 (0)
 -->
<!-- Title: %3 Pages: 1 -->
<svg width="348pt" height="392pt"
 viewBox="0.00 0.00 348.00 392.00" xmlns="http://www.w3.org/2000/svg" xmlns:xlink="http://www.w3.org/1999/xlink">
<g id="graph0" class="graph" transform="scale(1 1) rotate(0) translate(4 388)">
<title>%3</title>
<polygon fill="white" stroke="transparent" points="-4,4 -4,-388 344,-388 344,4 -4,4"/>
<text text-anchor="middle" x="170" y="-368.8" font-family="Times,serif" font-size="14.00">Dependency Tree for</text>
<text text-anchor="middle" x="170" y="-353.8" font-family="Times,serif" font-size="14.00">Native Cross Compiler Generation</text>
<g id="clust1" class="cluster">
<title>cluster_host</title>
<polygon fill="#f4f4ff" stroke="black" points="8,-8 8,-338 332,-338 332,-8 8,-8"/>
<text text-anchor="middle" x="170" y="-322.8" font-family="Times,serif" font-size="14.00">Native Cross</text>
</g>
<g id="clust2" class="cluster">
<title>cluster_bin</title>
<polygon fill="white" stroke="black" points="228,-16 228,-307 324,-307 324,-16 228,-16"/>
<text text-anchor="middle" x="276" y="-291.8" font-family="Times,serif" font-size="14.00">Binutils</text>
</g>
<g id="clust3" class="cluster">
<title>cluster_gcc</title>
<polygon fill="white" stroke="black" points="121,-16 121,-307 217,-307 217,-16 121,-16"/>
<text text-anchor="middle" x="169" y="-291.8" font-family="Times,serif" font-size="14.00">GCC</text>
</g>
<g id="clust4" class="cluster">
<title>cluster_libc</title>
<polygon fill="white" stroke="black" points="16,-16 16,-307 112,-307 112,-16 16,-16"/>
<text text-anchor="middle" x="64" y="-291.8" font-family="Times,serif" font-size="14.00">LibC</text>
</g>
<!-- bin_i -->
<g id="node1" class="node">
<title>bin_i</title>
<ellipse fill="#ddddff" stroke="black" cx="276" cy="-258" rx="39.79" ry="18"/>
<text text-anchor="middle" x="276" y="-254.3" font-family="Times,serif" font-size="14.00">install</text>
</g>
<!-- bin_m -->
<g id="node2" class="node">
<title>bin_m</title>
<ellipse fill="#ddddff" stroke="black" cx="280" cy="-186" rx="36" ry="18"/>
<text text-anchor="middle" x="280" y="-182.3" font-family="Times,serif" font-size="14.00">make</text>
</g>
<!-- bin_i&#45;&gt;bin_m -->
<g id="edge1" class="edge">
<title>bin_i&#45;&gt;bin_m</title>
<path fill="none" stroke="black" d="M276.99,-239.7C277.43,-231.98 277.96,-222.71 278.45,-214.11"/>
<polygon fill="black" stroke="black" points="281.95,-214.29 279.02,-204.1 274.96,-213.89 281.95,-214.29"/>
</g>
<!-- bin_c -->
<g id="node3" class="node">
<title>bin_c</title>
<ellipse fill="#ddddff" stroke="black" cx="280" cy="-114" rx="30.59" ry="18"/>
<text text-anchor="middle" x="280" y="-110.3" font-family="Times,serif" font-size="14.00">conf</text>
</g>
<!-- bin_m&#45;&gt;bin_c -->
<g id="edge2" class="edge">
<title>bin_m&#45;&gt;bin_c</title>
<path fill="none" stroke="black" d="M280,-167.7C280,-159.98 280,-150.71 280,-142.11"/>
<polygon fill="black" stroke="black" points="283.5,-142.1 280,-132.1 276.5,-142.1 283.5,-142.1"/>
</g>
<!-- bin_s -->
<g id="node4" class="node">
<title>bin_s</title>
<ellipse fill="white" stroke="black" cx="280" cy="-42" rx="27" ry="18"/>
<text text-anchor="middle" x="280" y="-38.3" font-family="Times,serif" font-size="14.00">src</text>
</g>
<!-- bin_c&#45;&gt;bin_s -->
<g id="edge3" class="edge">
<title>bin_c&#45;&gt;bin_s</title>
<path fill="none" stroke="black" d="M280,-95.7C280,-87.98 280,-78.71 280,-70.11"/>
<polygon fill="black" stroke="black" points="283.5,-70.1 280,-60.1 276.5,-70.1 283.5,-70.1"/>
</g>
<!-- gcc_i -->
<g id="node5" class="node">
<title>gcc_i</title>
<ellipse fill="#ddddff" stroke="black" cx="169" cy="-258" rx="39.79" ry="18"/>
<text text-anchor="middle" x="169" y="-254.3" font-family="Times,serif" font-size="14.00">install</text>
</g>
<!-- gcc_m -->
<g id="node6" class="node">
<title>gcc_m</title>
<ellipse fill="#ddddff" stroke="black" cx="170" cy="-186" rx="36" ry="18"/>
<text text-anchor="middle" x="170" y="-182.3" font-family="Times,serif" font-size="14.00">make</text>
</g>
<!-- gcc_i&#45;&gt;gcc_m -->
<g id="edge4" class="edge">
<title>gcc_i&#45;&gt;gcc_m</title>
<path fill="none" stroke="black" d="M169.25,-239.7C169.36,-231.98 169.49,-222.71 169.61,-214.11"/>
<polygon fill="black" stroke="black" points="173.11,-214.15 169.76,-204.1 166.11,-214.05 173.11,-214.15"/>
</g>
<!-- gcc_c -->
<g id="node7" class="node">
<title>gcc_c</title>
<ellipse fill="#ddddff" stroke="black" cx="174" cy="-114" rx="30.59" ry="18"/>
<text text-anchor="middle" x="174" y="-110.3" font-family="Times,serif" font-size="14.00">conf</text>
</g>
<!-- gcc_m&#45;&gt;gcc_c -->
<g id="edge5" class="edge">
<title>gcc_m&#45;&gt;gcc_c</title>
<path fill="none" stroke="black" d="M170.99,-167.7C171.43,-159.98 171.96,-150.71 172.45,-142.11"/>
<polygon fill="black" stroke="black" points="175.95,-142.29 173.02,-132.1 168.96,-141.89 175.95,-142.29"/>
</g>
<!-- gcc_c&#45;&gt;bin_i -->
<g id="edge10" class="edge">
<title>gcc_c&#45;&gt;bin_i</title>
<path fill="none" stroke="black" d="M187.21,-130.77C195.59,-141.07 206.42,-154.98 215,-168 225.07,-183.28 224.93,-188.72 235,-204 241.4,-213.72 249.06,-223.93 256.02,-232.77"/>
<polygon fill="black" stroke="black" points="253.43,-235.14 262.41,-240.77 258.9,-230.77 253.43,-235.14"/>
</g>
<!-- gcc_s -->
<g id="node8" class="node">
<title>gcc_s</title>
<ellipse fill="white" stroke="black" cx="174" cy="-42" rx="27" ry="18"/>
<text text-anchor="middle" x="174" y="-38.3" font-family="Times,serif" font-size="14.00">src</text>
</g>
<!-- gcc_c&#45;&gt;gcc_s -->
<g id="edge6" class="edge">
<title>gcc_c&#45;&gt;gcc_s</title>
<path fill="none" stroke="black" d="M174,-95.7C174,-87.98 174,-78.71 174,-70.11"/>
<polygon fill="black" stroke="black" points="177.5,-70.1 174,-60.1 170.5,-70.1 177.5,-70.1"/>
</g>
<!-- libc_i -->
<g id="node9" class="node">
<title>libc_i</title>
<ellipse fill="#ddddff" stroke="black" cx="64" cy="-258" rx="39.79" ry="18"/>
<text text-anchor="middle" x="64" y="-254.3" font-family="Times,serif" font-size="14.00">install</text>
</g>
<!-- libc_m -->
<g id="node10" class="node">
<title>libc_m</title>
<ellipse fill="#ddddff" stroke="black" cx="60" cy="-186" rx="36" ry="18"/>
<text text-anchor="middle" x="60" y="-182.3" font-family="Times,serif" font-size="14.00">make</text>
</g>
<!-- libc_i&#45;&gt;libc_m -->
<g id="edge7" class="edge">
<title>libc_i&#45;&gt;libc_m</title>
<path fill="none" stroke="black" d="M63.01,-239.7C62.57,-231.98 62.04,-222.71 61.55,-214.11"/>
<polygon fill="black" stroke="black" points="65.04,-213.89 60.98,-204.1 58.05,-214.29 65.04,-213.89"/>
</g>
<!-- libc_c -->
<g id="node11" class="node">
<title>libc_c</title>
<ellipse fill="#ddddff" stroke="black" cx="66" cy="-114" rx="30.59" ry="18"/>
<text text-anchor="middle" x="66" y="-110.3" font-family="Times,serif" font-size="14.00">conf</text>
</g>
<!-- libc_m&#45;&gt;libc_c -->
<g id="edge8" class="edge">
<title>libc_m&#45;&gt;libc_c</title>
<path fill="none" stroke="black" d="M61.48,-167.7C62.14,-159.98 62.94,-150.71 63.68,-142.11"/>
<polygon fill="black" stroke="black" points="67.17,-142.37 64.53,-132.1 60.19,-141.77 67.17,-142.37"/>
</g>
<!-- libc_c&#45;&gt;gcc_i -->
<g id="edge11" class="edge">
<title>libc_c&#45;&gt;gcc_i</title>
<path fill="none" stroke="black" d="M78.5,-130.86C86.43,-141.2 96.73,-155.12 105,-168 114.89,-183.4 114.67,-188.89 125,-204 131.82,-213.98 140.12,-224.33 147.66,-233.22"/>
<polygon fill="black" stroke="black" points="145.12,-235.63 154.3,-240.91 150.41,-231.06 145.12,-235.63"/>
</g>
<!-- libc_s -->
<g id="node12" class="node">
<title>libc_s</title>
<ellipse fill="white" stroke="black" cx="66" cy="-42" rx="27" ry="18"/>
<text text-anchor="middle" x="66" y="-38.3" font-family="Times,serif" font-size="14.00">src</text>
</g>
<!-- libc_c&#45;&gt;libc_s -->
<g id="edge9" class="edge">
<title>libc_c&#45;&gt;libc_s</title>
<path fill="none" stroke="black" d="M66,-95.7C66,-87.98 66,-78.71 66,-70.11"/>
<polygon fill="black" stroke="black" points="69.5,-70.1 66,-60.1 62.5,-70.1 69.5,-70.1"/>
</g>
</g>
</svg>
